<svg xmlns="http://www.w3.org/2000/svg" viewBox="0 0 240 180">
  <line x1="40" y1="140" x2="200" y2="140" stroke="#e4ebf2" stroke-width="3" stroke-linecap="round"/>
  <path d="M60 76L120 32L180 76Z" fill="#235684" stroke="#16324f" stroke-width="3" stroke-linejoin="round"/>
  <line x1="90" y1="56" x2="90" y2="76" stroke="#e4ebf2" stroke-width="2"/>
  <line x1="120" y1="36" x2="120" y2="76" stroke="#e4ebf2" stroke-width="2"/>
  <line x1="150" y1="56" x2="150" y2="76" stroke="#e4ebf2" stroke-width="2"/>
  <line x1="76" y1="65" x2="164" y2="65" stroke="#e4ebf2" stroke-width="2"/>
  <rect x="68" y="76" width="104" height="64" rx="4" fill="#f4f7fa" stroke="#16324f" stroke-width="3"/>
  <rect x="88" y="94" width="24" height="24" rx="3" fill="#e4ebf2" stroke="#235684" stroke-width="2"/>
  <rect x="128" y="94" width="24" height="24" rx="3" fill="#e4ebf2" stroke="#235684" stroke-width="2"/>
  <path d="M186 118C184 96 196 80 212 76C214 98 202 114 186 118Z" fill="#b4740f"/>
  <path d="M188 116C196 104 204 92 210 80" fill="none" stroke="#faf9f7" stroke-width="2" stroke-linecap="round"/>
</svg>
